<svg xmlns="http://www.w3.org/2000/svg" xmlns:xlink="http://www.w3.org/1999/xlink" viewBox="0 0 100 100"><defs><radialGradient id="radial-gradient" cx="9157.72" cy="2768.44" r="24.44" gradientTransform="matrix(-0.53, -0.87, -0.48, 0.95, 6254.72, 5385.97)" gradientUnits="userSpaceOnUse"><stop offset="0.06" stop-color="#809cb0"/><stop offset="1" stop-color="#fff"/></radialGradient><radialGradient id="radial-gradient-2" cx="9215.2" cy="2777.03" r="13.46" gradientTransform="matrix(-0.53, -0.87, -0.48, 0.95, 6239.52, 5406.11)" xlink:href="#radial-gradient"/></defs><title>logo-clock</title><g style="isolation:isolate"><g id="Layer_1" data-name="Layer 1"><path d="M82.53,79.14c-4.11-2.55-7.43-8.73-7.43-13.8A6.72,6.72,0,0,1,76.35,61c-2.26.18-3.78,2.21-3.78,5.64,0,5.07,3.33,11.24,7.43,13.8,2.58,1.6,4.84,1.38,6.17-.26A6,6,0,0,1,82.53,79.14Z" fill="#76b5e3"/><path d="M89.75,77.47a16.21,16.21,0,0,0-.13-1.94l3-.41a31.57,31.57,0,0,0-1.36-4.89l-3.43-1.12a25,25,0,0,0-2.13-4l.82-3.72a28.16,28.16,0,0,0-3.27-3.72l-1.85,2.56a15,15,0,0,0-1.5-1.09,11.47,11.47,0,0,0-1.51-.78l-1.84-4.86a8.65,8.65,0,0,0-3.28-.35l.82,4.74A4.69,4.69,0,0,0,72,59.24L68.55,56.1a10,10,0,0,0-1.36,3.21l3,4.14a14.18,14.18,0,0,0-.13,1.78,18.23,18.23,0,0,0,.13,1.94l-3,.41a30.6,30.6,0,0,0,1.36,4.9L72,73.59a27.38,27.38,0,0,0,2.13,4l-.82,3.72A29.65,29.65,0,0,0,76.56,85l1.84-2.57a12.78,12.78,0,0,0,1.51,1.09,10.79,10.79,0,0,0,1.5.78l1.85,4.86a8.44,8.44,0,0,0,3.27.36l-.82-4.74a4.53,4.53,0,0,0,2.13-1.31l3.43,3.14a10.07,10.07,0,0,0,1.36-3.2l-3-4.15A12.41,12.41,0,0,0,89.75,77.47Zm-9.75,3c-4.1-2.56-7.43-8.73-7.43-13.8S75.9,59.56,80,62.11s7.43,8.73,7.43,13.8S84.11,83,80,80.48Z" fill="#aaceed"/><polygon points="81.28 56.63 79.44 51.77 76.56 53.55 78.4 58.41 81.28 56.63" fill="#76b5e3"/><path d="M78.4,58.41a11.47,11.47,0,0,1,1.51.78,15,15,0,0,1,1.5,1.09l1.85-2.56h0l-.46-.31a11.47,11.47,0,0,0-1.51-.78Z" fill="#d1e9f9"/><path d="M79.44,51.77a8.68,8.68,0,0,0-3.28-.35L73.28,53.2a8.65,8.65,0,0,1,3.28.35Z" fill="#d1e9f9"/><path d="M89.41,59.66a27.51,27.51,0,0,0-3.28-3.72l-2.87,1.78a28.16,28.16,0,0,1,3.27,3.72Z" fill="#d1e9f9"/><polygon points="86.53 61.44 85.71 65.16 88.59 63.38 89.41 59.66 86.53 61.44" fill="#76b5e3"/><path d="M85.71,65.16a25,25,0,0,1,2.13,4l2.88-1.78a25.86,25.86,0,0,0-2.13-3.95Z" fill="#76b5e3"/><polygon points="87.84 69.11 91.27 70.23 94.14 68.45 90.72 67.33 87.84 69.11" fill="#d1e9f9"/><path d="M91.27,70.23a31.57,31.57,0,0,1,1.36,4.89l2.88-1.78a30.54,30.54,0,0,0-1.37-4.89Z" fill="#76b5e3"/><path d="M74.1,57.94l-.24-1.38-2.43-2.24L68.55,56.1,72,59.24A4.69,4.69,0,0,1,74.1,57.94Z" fill="#76b5e3"/><path d="M92.63,83.4a10.07,10.07,0,0,1-1.36,3.2l2.87-1.78a10,10,0,0,0,1.37-3.2Z" fill="#76b5e3"/><path d="M92.5,77.47a12.41,12.41,0,0,0,.13-1.78c0-.19,0-.38,0-.56l-3,.4a16.21,16.21,0,0,1,.13,1.94,12.41,12.41,0,0,1-.13,1.78Z" fill="#76b5e3"/><polygon points="89.62 79.25 92.63 83.4 95.5 81.62 92.5 77.47 89.62 79.25" fill="#d1e9f9"/><path d="M87.84,83.46a4.53,4.53,0,0,1-2.13,1.31l.82,4.74,2.88-1.78-.58-3.36Z" fill="#76b5e3"/><path d="M70.08,65.75l-2.89,1.83,3-.41C70.14,66.69,70.1,66.22,70.08,65.75Z" fill="#d1e9f9"/><path d="M78.4,82.42,76.56,85l2.9-1.78C79.1,83,78.75,82.7,78.4,82.42Z" fill="#76b5e3"/><g style="mix-blend-mode:color-dodge"><path d="M73.75,58.15v0l-.4.2A3.39,3.39,0,0,1,73.75,58.15Z" fill="#fff"/><path d="M69.83,67.23l-2.5.34c0,.05,0,.1,0,.15l2.47-.33A.92.92,0,0,1,69.83,67.23Z" fill="#fff"/><path d="M86.37,61.64l-.82,3.72a26.34,26.34,0,0,1,2.13,4l3.42,1.12a29.72,29.72,0,0,1,1.33,4.74l.34-.06a30.6,30.6,0,0,0-1.36-4.9L88,69.1a27.38,27.38,0,0,0-2.13-4l.82-3.72A29.65,29.65,0,0,0,83.4,57.7l-.11.41A29.4,29.4,0,0,1,86.37,61.64Z" fill="#fff"/><path d="M80,80.42c-4.11-2.56-7.43-8.74-7.43-13.81,0-2.24.65-3.88,1.73-4.8-1.25.87-2,2.59-2,5,0,5.07,3.33,11.25,7.43,13.8,2.08,1.29,4,1.4,5.3.55l-.31.08A5.32,5.32,0,0,1,80,80.42Z" fill="#fff"/><path d="M86.27,84.61a4.7,4.7,0,0,0,1.35-.82l-.13-.12A4.75,4.75,0,0,1,86.27,84.61Z" fill="#fff"/><path d="M71.86,59.33c-.12,0,0-.11.13-.22l-3.3-3c-.09.14-.17.29,0,.31Z" fill="#fff"/><path d="M85.63,85l.79,4.54c-.09,0,.08,0,.26,0l-.81-4.69C85.7,84.87,85.54,84.93,85.63,85Z" fill="#fff" style="mix-blend-mode:color-dodge"/><path d="M89.9,77.46a15.35,15.35,0,0,0-.12-1.78l-.3,0a16.21,16.21,0,0,1,.13,1.94,12.52,12.52,0,0,1-.13,1.78l3,4.15a10.27,10.27,0,0,1-1.1,2.76l0,.26a10,10,0,0,0,1.36-3.21l-3-4.14A14.18,14.18,0,0,0,89.9,77.46Z" fill="#fff"/><path d="M76.43,53.68l1.85,4.86a10.79,10.79,0,0,1,1.5.78,14,14,0,0,1,1.51,1.09l.06-.31c-.43-.33-.86-.65-1.3-.93a11.88,11.88,0,0,0-1.5-.77L76.7,53.54a8.44,8.44,0,0,0-3.27-.36l0,.21A10,10,0,0,1,76.43,53.68Z" fill="#fff"/><path d="M78.05,82.64l-1.54,2.14.19.19,1.56-2.17Z" fill="#fff"/></g><path d="M80.48,41.76C74.31,37.93,69.3,28.63,69.3,21a10.14,10.14,0,0,1,1.88-6.47c-3.39.27-5.68,3.32-5.68,8.48,0,7.62,5,16.92,11.18,20.76,3.88,2.41,7.28,2.08,9.28-.39A9.17,9.17,0,0,1,80.48,41.76Z" fill="#76b5e3"/><path d="M91.34,39.25a24.12,24.12,0,0,0-.19-2.92l4.52-.62a46.74,46.74,0,0,0-2-7.36l-5.15-1.68a38.67,38.67,0,0,0-3.2-6l1.23-5.59a42.54,42.54,0,0,0-4.93-5.6L78.8,13.39a22.67,22.67,0,0,0-2.26-1.64,17.67,17.67,0,0,0-2.27-1.18L71.5,3.27a12.87,12.87,0,0,0-4.93-.54L67.8,9.86a7,7,0,0,0-3.2,2L59.45,7.1a15,15,0,0,0-2.05,4.82l4.52,6.24a20.36,20.36,0,0,0-.19,2.68,26.31,26.31,0,0,0,.19,2.91l-4.52.62a46.74,46.74,0,0,0,2.05,7.36l5.15,1.68a40.47,40.47,0,0,0,3.2,6L66.57,45a43.18,43.18,0,0,0,4.93,5.59l2.77-3.86a21.79,21.79,0,0,0,2.27,1.65,16.84,16.84,0,0,0,2.26,1.17l2.77,7.3a12.89,12.89,0,0,0,4.93.54l-1.23-7.13a6.88,6.88,0,0,0,3.2-2L93.62,53a15,15,0,0,0,2-4.82l-4.52-6.23A19,19,0,0,0,91.34,39.25ZM76.68,43.77C70.51,39.93,65.5,30.63,65.5,23s5-10.7,11.18-6.87S87.86,29.28,87.86,36.9,82.85,47.6,76.68,43.77Z" fill="#aaceed"/><polygon points="78.6 7.9 75.83 0.59 71.5 3.27 74.27 10.57 78.6 7.9" fill="#76b5e3"/><path d="M74.27,10.57a17.67,17.67,0,0,1,2.27,1.18,22.67,22.67,0,0,1,2.26,1.64l2.77-3.86h0s-.47-.32-.7-.46A17.55,17.55,0,0,0,78.6,7.9Z" fill="#d1e9f9"/><path d="M75.83.59A12.87,12.87,0,0,0,70.9.05L66.57,2.73a12.87,12.87,0,0,1,4.93.54Z" fill="#d1e9f9"/><path d="M90.83,12.45a43.19,43.19,0,0,0-4.93-5.6L81.57,9.53a42.54,42.54,0,0,1,4.93,5.6Z" fill="#d1e9f9"/><polygon points="86.5 15.13 85.27 20.72 89.6 18.04 90.83 12.45 86.5 15.13" fill="#76b5e3"/><path d="M85.27,20.72a38.67,38.67,0,0,1,3.2,6L92.8,24A38.67,38.67,0,0,0,89.6,18Z" fill="#76b5e3"/><polygon points="88.47 26.67 93.62 28.35 97.95 25.67 92.8 23.99 88.47 26.67" fill="#d1e9f9"/><path d="M93.62,28.35a46.74,46.74,0,0,1,2,7.36L100,33a47,47,0,0,0-2-7.36Z" fill="#76b5e3"/><path d="M67.8,9.86l-.35-2.07L63.78,4.43,59.45,7.1l5.15,4.73A7,7,0,0,1,67.8,9.86Z" fill="#76b5e3"/><path d="M95.67,48.16a15,15,0,0,1-2,4.82L98,50.3a15,15,0,0,0,2-4.82Z" fill="#76b5e3"/><path d="M95.48,39.25a19,19,0,0,0,.19-2.68c0-.28,0-.57,0-.85l-4.49.61a24.12,24.12,0,0,1,.19,2.92,19,19,0,0,1-.19,2.68Z" fill="#76b5e3"/><polygon points="91.15 41.93 95.67 48.16 100 45.48 95.48 39.25 91.15 41.93" fill="#d1e9f9"/><path d="M88.47,48.25a6.88,6.88,0,0,1-3.2,2l1.23,7.13,4.33-2.68L90,49.62Z" fill="#76b5e3"/><path d="M61.76,21.62,57.4,24.37l4.52-.62C61.84,23,61.79,22.32,61.76,21.62Z" fill="#d1e9f9"/><path d="M74.27,46.69,71.5,50.55l4.36-2.67C75.33,47.51,74.79,47.12,74.27,46.69Z" fill="#76b5e3"/><g style="mix-blend-mode:color-dodge"><path d="M67.28,10.18l0-.07-.6.29C66.87,10.32,67.07,10.24,67.28,10.18Z" fill="#fff"/><path d="M61.37,23.84l-3.75.51a1.89,1.89,0,0,1,.05.23l3.73-.5Z" fill="#fff"/><path d="M86.26,15.43,85,21a40.58,40.58,0,0,1,3.2,6l5.15,1.67a47.2,47.2,0,0,1,2,7.13l.51-.09a46.74,46.74,0,0,0-2-7.36l-5.15-1.68a40.47,40.47,0,0,0-3.2-5.95l1.23-5.6a42.44,42.44,0,0,0-4.93-5.59l-.17.61A43.58,43.58,0,0,1,86.26,15.43Z" fill="#fff"/><path d="M76.72,43.67c-6.18-3.83-11.18-13.13-11.18-20.76,0-3.37,1-5.83,2.61-7.22-1.88,1.3-3,3.9-3,7.55,0,7.63,5,16.92,11.17,20.76,3.12,1.94,5.94,2.11,8,.83-.15.05-.3.08-.46.12C81.86,45.7,79.4,45.34,76.72,43.67Z" fill="#fff"/><path d="M86.1,50a7,7,0,0,0,2-1.23L88,48.58A7.11,7.11,0,0,1,86.1,50Z" fill="#fff"/><path d="M64.44,12c-.19,0,0-.15.19-.32l-5-4.55c-.14.21-.27.44,0,.47Z" fill="#fff"/><path d="M85.15,50.54l1.18,6.82c-.14,0,.13,0,.39,0L85.5,50.27C85.25,50.37,85,50.47,85.15,50.54Z" fill="#fff" style="mix-blend-mode:color-dodge"/><path d="M91.56,39.22a24.39,24.39,0,0,0-.17-2.67l-.45,0a24.38,24.38,0,0,1,.19,2.92,18.88,18.88,0,0,1-.19,2.68l4.52,6.23a15.51,15.51,0,0,1-1.65,4.16l0,.39a15,15,0,0,0,2-4.82L91.37,41.9A20.36,20.36,0,0,0,91.56,39.22Z" fill="#fff"/><path d="M71.31,3.46l2.77,7.31a16.93,16.93,0,0,1,2.27,1.17,22.67,22.67,0,0,1,2.26,1.64l.09-.46c-.64-.5-1.28-1-1.94-1.4a17.55,17.55,0,0,0-2.27-1.17l-2.77-7.3a12.89,12.89,0,0,0-4.93-.54l0,.31A14.91,14.91,0,0,1,71.31,3.46Z" fill="#fff"/><path d="M73.75,47l-2.32,3.23.29.29,2.35-3.27A3.92,3.92,0,0,1,73.75,47Z" fill="#fff"/></g><ellipse cx="68.27" cy="48.46" rx="23.11" ry="41.67" transform="translate(-14.53 36.06) rotate(-26.85)" fill="url(#radial-gradient)" style="mix-blend-mode:multiply"/><ellipse cx="60.2" cy="87.8" rx="27.23" ry="12.2" fill="#94b5d1" opacity="0.2"/><path d="M80.11,70.62c0-22.92-15-50.85-33.59-62.39-9-5.56-17.08-6.29-23.1-3v0L18.2,8.33l2.42,4.47a39.06,39.06,0,0,0-1.74,12.13c0,22.92,15,50.85,33.59,62.39a33,33,0,0,0,10.89,4.54l2.46,4.55,3.49-2C76,90.94,80.11,82.68,80.11,70.62Z" fill="#246c77"/><ellipse cx="42.58" cy="52.05" rx="27.81" ry="50.14" transform="translate(-18.92 24.84) rotate(-26.85)" fill="#417f71"/><ellipse cx="41.84" cy="52.48" rx="27.81" ry="50.14" transform="translate(-19.19 24.55) rotate(-26.85)" fill="#54c6d7"/><ellipse cx="41.84" cy="52.48" rx="23.73" ry="42.79" transform="translate(-19.19 24.55) rotate(-26.85)" fill="#fff"/><path d="M66.87,85.3c2.31-3.67,3.63-8.73,3.63-15V70L41.84,52.48Z" fill="#f6946f"/><path d="M43,87.27C27.17,77.43,14.34,53.59,14.34,34c0-9.79,3.22-16.66,8.42-19.83-5.88,2.83-9.59,10-9.59,20.46,0,19.56,12.84,43.4,28.67,53.24,7.9,4.92,15.06,5.41,20.24,2.24C57,92.58,50.33,91.83,43,87.27Z" fill="#0c4d93"/><path d="M43.4,53.46c0,1.07-.7,1.5-1.56,1a3.77,3.77,0,0,1-1.57-2.91c0-1.07.7-1.5,1.57-1A3.78,3.78,0,0,1,43.4,53.46Z" fill="#1f376b"/><path d="M42.27,22.39h0a1.15,1.15,0,0,1-.43-.9V19.92c0-.34.19-.5.43-.35h0a1.15,1.15,0,0,1,.44.89V22C42.71,22.38,42.51,22.54,42.27,22.39Z" fill="#76b5e3"/><path d="M42.27,85.4h0a1.15,1.15,0,0,1-.43-.9V82.93c0-.34.19-.5.43-.35h0a1.15,1.15,0,0,1,.44.89V85C42.71,85.39,42.51,85.55,42.27,85.4Z" fill="#76b5e3"/><path d="M17.92,37.34h0c0,.3-.17.43-.38.3l-1.53-1a1,1,0,0,1-.37-.77h0c0-.29.16-.43.37-.3l1.53,1A1,1,0,0,1,17.92,37.34Z" fill="#76b5e3"/><path d="M68.91,69h0c0,.3-.17.44-.37.31l-1.54-1a1,1,0,0,1-.37-.76h0c0-.3.17-.44.37-.31l1.54,1A1,1,0,0,1,68.91,69Z" fill="#76b5e3"/><path d="M30.1,18.85h0c-.21,0-.48-.24-.6-.57l-.7-2c-.12-.33-.05-.61.16-.63h0c.2,0,.47.23.59.56l.71,1.95C30.38,18.54,30.3,18.83,30.1,18.85Z" fill="#76b5e3"/><path d="M55.59,89.27h0c-.2,0-.47-.24-.59-.57l-.71-2c-.12-.33,0-.61.16-.63h0c.21,0,.48.23.6.56l.7,1.95C55.87,89,55.8,89.25,55.59,89.27Z" fill="#76b5e3"/><path d="M21.18,54.42h0c.12.33.05.61-.16.63l-1.22.11c-.21,0-.47-.23-.59-.56h0c-.12-.33-.05-.62.16-.64l1.22-.11C20.8,53.83,21.06,54.09,21.18,54.42Z" fill="#76b5e3"/><path d="M65.34,50.37h0c.12.33,0,.61-.16.63L64,51.11c-.21,0-.47-.23-.59-.56h0c-.12-.33,0-.62.16-.64l1.22-.11C65,49.78,65.22,50,65.34,50.37Z" fill="#76b5e3"/><path d="M21.18,24.32h0c-.12.18-.38.11-.59-.17l-1.22-1.63a.84.84,0,0,1-.16-.84h0c.12-.18.38-.1.59.18L21,23.49A.82.82,0,0,1,21.18,24.32Z" fill="#76b5e3"/><path d="M65.34,83.28h0c-.12.18-.38.11-.59-.17l-1.22-1.63a.84.84,0,0,1-.16-.84h0c.12-.18.38-.1.59.18l1.22,1.63A.82.82,0,0,1,65.34,83.28Z" fill="#76b5e3"/><path d="M30.1,71h0a.84.84,0,0,1,.16.83l-.71,1.07c-.12.18-.39.1-.59-.17h0a.82.82,0,0,1-.16-.83l.7-1.08C29.62,70.62,29.89,70.7,30.1,71Z" fill="#76b5e3"/><path d="M55.59,32.26h0a.82.82,0,0,1,.16.83l-.7,1.07c-.12.19-.39.11-.6-.17h0a.82.82,0,0,1-.16-.83L55,32.09C55.12,31.9,55.39,32,55.59,32.26Z" fill="#76b5e3"/><polygon points="42.59 54.18 41.08 53.24 41.08 27.09 42.59 28.03 42.59 54.18" fill="#1f376b"/><polygon points="42.11 52.14 41.64 52.84 62.13 80.19 62.59 79.48 42.11 52.14" fill="#1f376b"/><path d="M42.62,53c0,.54-.35.75-.78.48A1.88,1.88,0,0,1,41.05,52c0-.54.35-.75.79-.49A1.91,1.91,0,0,1,42.62,53Z" fill="#eb4780"/><polygon points="47.87 49.85 47.04 48.32 43.7 50.37 43.92 50.77 23.21 63.48 23.61 64.21 44.31 51.5 44.52 51.9 47.87 49.85" fill="#f6946f"/><ellipse cx="18.5" cy="26.71" rx="12.73" ry="22.96" transform="translate(-10.07 11.23) rotate(-26.85)" fill="url(#radial-gradient-2)" style="mix-blend-mode:multiply"/><path d="M24.8,32.14c0-7.33-4.8-16.26-10.74-20-2.86-1.78-5.46-2-7.38-1h0l-3.49,2L4,14.65a12.55,12.55,0,0,0-.56,3.88c0,7.33,4.81,16.26,10.74,19.95a10.39,10.39,0,0,0,3.48,1.45l.79,1.46,2.45-1.34C23,39,24.8,36,24.8,32.14Z" fill="#bf6241"/><ellipse cx="10.98" cy="27.2" rx="8.89" ry="16.03" transform="translate(-11.1 7.89) rotate(-26.85)" fill="#73331b"/><ellipse cx="10.74" cy="27.34" rx="8.89" ry="16.03" transform="translate(-11.19 7.8) rotate(-26.85)" fill="#f6946f"/><path d="M13.15,22.42C11.29,19,8.81,19.08,7.91,20.34V18.86c.3,0,.51-.22.51-.65a2.07,2.07,0,0,0-.86-1.59c-.47-.29-.85-.06-.85.53a2.11,2.11,0,0,0,.51,1.28V33.25c-.3,0-.51.22-.51.65L8.42,35a2.11,2.11,0,0,0-.51-1.28V26.6c.9-1.25,3.38-1.37,5.24,2.08,1.94,3.6,4.9,2.84,4.9,2.84V25.25S15.09,26,13.15,22.42Z" fill="#fff"/></g></g></svg>