<svg id="Layer_1" enable-background="new 0 0 512 512" height="512" viewBox="0 0 512 512" width="512" xmlns="http://www.w3.org/2000/svg"><g><path d="m74.099 345.703c-2.579 3.26-7.256 3.799-10.488 1.246-3.261-2.551-3.799-7.256-1.248-10.488l25.824-32.711c3.033-3.855 8.873-3.742 11.82.113l37.305 47.281 30.303-38.381c2.551-3.23 7.229-3.77 10.488-1.219 3.231 2.551 3.77 7.258 1.219 10.488-23.272 29.48-46.574 58.99-69.846 88.471h228.758l-114.38-144.88-23.471 29.736c-2.58 3.232-7.257 3.799-10.489 1.246-3.26-2.578-3.798-7.256-1.247-10.488l29.339-37.189c3.061-3.855 8.901-3.742 11.82.113l116.364 147.402v-199.732c-110.382 0-220.765 0-331.175 0v199.732l26.306-33.307c2.58-3.26 7.257-3.799 10.488-1.248 3.26 2.551 3.798 7.256 1.248 10.488l-30.104 38.127h67.521l37.361-47.311-33.761-42.775zm19.956-133.57c10.29 0 19.616 4.168 26.363 10.943 6.775 6.746 10.942 16.072 10.942 26.361 0 10.318-4.167 19.645-10.942 26.391-6.747 6.746-16.073 10.914-26.363 10.914-10.318 0-19.644-4.168-26.391-10.914s-10.942-16.072-10.942-26.391c0-10.289 4.195-19.615 10.942-26.361 6.747-6.775 16.073-10.943 26.391-10.943zm15.761 21.545c-4.026-4.055-9.61-6.549-15.761-6.549-6.18 0-11.735 2.494-15.789 6.549-4.025 4.023-6.52 9.609-6.52 15.76 0 6.18 2.495 11.736 6.52 15.789 4.054 4.025 9.609 6.52 15.789 6.52 6.151 0 11.735-2.494 15.761-6.52 4.054-4.053 6.548-9.609 6.548-15.789 0-6.151-2.494-11.737-6.548-15.76zm251.351 137.99h52.385l-20.467-40.988c-.624-1.135-.936-2.297-.936-3.629v-51.932c0-4.139 3.374-7.512 7.512-7.512 4.139 0 7.484 3.373 7.484 7.512v44.449h14.769v-122.857h-14.769v44.449c0 4.139-3.345 7.484-7.484 7.484-4.138 0-7.512-3.346-7.512-7.484 0-28.063 0-56.127 0-84.189 0-6.662 2.721-12.699 7.086-17.094 4.564-4.535 10.659-7.086 17.094-7.086h26.135c6.662 0 12.7 2.721 17.093 7.086 4.366 4.395 7.087 10.432 7.087 17.094v170.08c0 1.332-.34 2.551-.935 3.629l-23.528 47.141c-2.608 5.217-7.115 8.873-13.096 8.873h-67.918v31.322c0 4.139-3.346 7.484-7.484 7.484h-143.35v13.209c0 4.762 1.956 9.127 5.13 12.273 3.146 3.147 7.484 5.104 12.274 5.104h251.889c4.762 0 9.1-1.957 12.275-5.104 3.147-3.146 5.102-7.512 5.102-12.273v-365.391c0-4.789-1.956-9.127-5.102-12.273-3.175-3.174-7.513-5.131-12.275-5.131h-172.97v63.949c0 8.902-3.629 17.01-9.496 22.877-5.868 5.867-13.975 9.496-22.876 9.496h-63.95v29.48h143.349c4.139 0 7.484 3.344 7.484 7.482zm75.742-174.957v122.857h14.741v-122.857zm-241.571-14.994v-36.965c0-2.098.851-3.996 2.24-5.357l96.294-96.264c1.445-1.477 3.373-2.213 5.301-2.213h180.455c8.901 0 17.008 3.658 22.876 9.525 5.868 5.868 9.496 13.948 9.496 22.875v365.391c0 8.9-3.628 17.008-9.496 22.875s-13.976 9.498-22.876 9.498h-251.89c-8.929 0-17.037-3.631-22.904-9.498-5.868-5.867-9.496-13.975-9.496-22.875v-13.209h-187.826c-4.138 0-7.512-3.346-7.512-7.484v-228.817c0-4.139 3.374-7.482 7.512-7.482zm96.322-115.201-70.725 70.725h53.348c4.763 0 9.1-1.955 12.275-5.102 3.146-3.176 5.102-7.512 5.102-12.275zm159.99 115.201v-24.746c0-2.523-1.049-4.82-2.693-6.492-1.729-1.701-4.054-2.721-6.492-2.721h-26.135v.027c-2.523 0-4.819 1.049-6.463 2.693-1.673 1.672-2.722 3.969-2.722 6.492v24.746h44.505zm-22.253 188.166 17.632-35.32h-35.264z"/></g></svg>